<svg xmlns="http://www.w3.org/2000/svg" width="430" height="430" fill="none" viewBox="0 0 430 430"><g stroke="#121331" stroke-width="12"><path d="M215.111 410c-4.788 0-8.857-3.074-10.343-7.357-14.943-55.207-45.328-104.068-86.234-141.659-52.35-53.037-52.139-138.469.636-191.244C145.663 43.247 180.387 30 215.111 30s69.449 13.247 95.942 39.74c52.775 52.775 52.986 138.207.636 191.244-40.906 37.591-71.291 86.452-86.234 141.659-1.486 4.283-5.556 7.357-10.344 7.357Z"/><path d="M215.111 111.409c-29.974 0-54.272 24.299-54.272 54.273s24.298 54.273 54.272 54.273c29.975 0 54.273-24.299 54.273-54.273s-24.298-54.273-54.273-54.273Z"/><path stroke-linecap="round" stroke-linejoin="round" d="m334.768 101.639-68.176 81.275M255.298 36.059l-70.221 84.411m-69.683-46.802 62.228 52.77m-82.66 102.358 70.208-84.397m-4.398 164.664 80.271-95.692"/></g></svg>